<svg xmlns="http://www.w3.org/2000/svg" viewBox="0 0 64 64" width="64" height="64">
  <!-- Background circle -->
  <circle cx="32" cy="32" r="30" fill="#333333"/>
  <!-- TV Body -->
  <rect x="10" y="12" width="44" height="30" rx="3" ry="3" fill="#111111" stroke="#666666" stroke-width="1"/>
  <!-- Screen -->
  <rect x="13" y="15" width="38" height="24" rx="1.5" ry="1.5" fill="#000000"/>
  <!-- Apple Logo on screen - white, clearly visible -->
  <path d="M32 21c0.8-1 2-1.5 3.1-1.5 0.1 1.4-0.5 2.7-1.2 3.5-0.8 1-2 1.6-3 1.6-0.2-1.3 0.5-2.6 1.1-3.6z" fill="#FFFFFF"/>
  <path d="M35 26.5c-0.6 0-1.5 0.5-2.3 0.5-0.8 0-1.6-0.5-2.4-0.5-1.2 0-2.4 0.7-3 1.9-1.3 2.3-0.3 5.7 0.9 7.5 0.6 0.9 1.4 1.9 2.3 1.9 1-0.1 1.3-0.6 2.4-0.6 1.1 0 1.4 0.6 2.4 0.6 1 0 1.6-0.9 2.2-1.8 0.5-0.7 0.8-1.3 0.9-1.7-0.1 0-1.9-0.7-1.9-2.8 0-1.8 1.4-2.6 1.5-2.7-0.8-1.2-2.1-1.4-2.5-1.4l0.2-0.9z" fill="#FFFFFF"/>
  <!-- Stand -->
  <rect x="25" y="42" width="14" height="1.5" rx="0.75" fill="#666666"/>
  <rect x="22" y="43.5" width="20" height="2.5" rx="1.25" fill="#555555"/>
  <!-- Status LED -->
  <circle cx="32" cy="49" r="1.5" fill="#00AAFF"/>
  <!-- Label -->
  <text x="32" y="58" text-anchor="middle" font-family="Arial,Helvetica,sans-serif" font-size="5" fill="#CCCCCC" font-weight="bold">Apple TV</text>
</svg>
