<svg xmlns="http://www.w3.org/2000/svg" viewBox="0 0 64 64" width="64" height="64">
  <!-- TV Body -->
  <rect x="4" y="8" width="56" height="40" rx="4" ry="4" fill="#1a1a1a" stroke="#333" stroke-width="1.5"/>
  <!-- Screen -->
  <rect x="8" y="12" width="48" height="32" rx="2" ry="2" fill="#2d2d2d"/>
  <!-- Apple Logo on screen -->
  <path d="M32 20c1.2-1.4 3-2.2 4.6-2.2 0.2 2-0.7 3.9-1.8 5.2-1.2 1.4-3 2.4-4.5 2.3-0.3-1.8 0.7-3.8 1.7-5.3z" fill="#a0a0a0"/>
  <path d="M36.4 25.8c-0.8-0.1-2.2 0.7-3.4 0.7-1.2 0-2.4-0.7-3.6-0.7-1.8 0-3.6 1.1-4.5 2.8-1.9 3.4-0.5 8.4 1.4 11.2 0.9 1.3 2 2.8 3.4 2.8 1.4-0.1 1.9-0.9 3.5-0.9 1.6 0 2.1 0.9 3.5 0.8 1.5-0.1 2.4-1.4 3.3-2.7 0.7-0.9 1.2-2 1.4-2.5-0.1 0-2.8-1.1-2.8-4.2 0-2.6 2.1-3.8 2.2-3.9-1.2-1.8-3.1-2-3.7-2.1l0.3-1.3z" fill="#a0a0a0"/>
  <!-- Stand -->
  <rect x="24" y="48" width="16" height="2" rx="1" fill="#555"/>
  <rect x="20" y="50" width="24" height="3" rx="1.5" fill="#444"/>
  <!-- Status LED -->
  <circle cx="32" cy="45" r="1.2" fill="#4a9eff" opacity="0.8"/>
</svg>
